<?xml version="1.0" encoding="utf-8"?>
<!-- Generator: Adobe Illustrator 22.0.1, SVG Export Plug-In . SVG Version: 6.00 Build 0)  -->
<svg version="1.1" id="Layer_2_1_" xmlns="http://www.w3.org/2000/svg" xmlns:xlink="http://www.w3.org/1999/xlink" x="0px" y="0px"
	 viewBox="0 0 513 538" style="enable-background:new 0 0 513 538;" xml:space="preserve">
<style type="text/css">
	.st0{fill:#53265E;stroke:#231F20;stroke-width:12;}
</style>
<path class="st0" d="M305,152H22c0,0-13-7-13-23S83,24,256,12c122-3,204,56,204,105c0,21-38,35-73,35c-0.2,21.2-2.5,29.1-4,62
	c6,48,28,120,87,231c21,44,27,52,27,52s-83,29-106,26c-19-17-39-62-43-78s-22-104-27-138S305,152,305,152z"/>
</svg>
