<?xml version="1.0" encoding="utf-8"?>
<!-- Generator: Adobe Illustrator 22.0.1, SVG Export Plug-In . SVG Version: 6.00 Build 0)  -->
<svg version="1.1" id="Layer_1" xmlns="http://www.w3.org/2000/svg" xmlns:xlink="http://www.w3.org/1999/xlink" x="0px" y="0px"
	 viewBox="0 0 179 179" style="enable-background:new 0 0 179 179;" xml:space="preserve">
<style type="text/css">
	.st0{fill:#0000FF;}
	.st1{fill:none;stroke:#000000;stroke-width:5;stroke-linejoin:round;}
	.st2{fill:#53265E;}
	.st3{fill:none;stroke:#000000;stroke-width:5;}
</style>
<g>
	<path d="M175,4v171H4V4H175 M179,0H0v179h179V0L179,0z"/>
</g>
<path class="st0" d="M150.5,69.8l-2.6,29.3c0,0,2.4,15-64.3,10.9c-36.2-2.2-67.4-22.2-67.4-22.2L150.5,69.8z"/>
<path class="st1" d="M150.5,69.8l-2.6,29.3c0,0,2.4,15-64.3,10.9c-36.2-2.2-67.4-22.2-67.4-22.2L150.5,69.8z"/>
<path class="st2" d="M144.8,176c0,0,5.9-82.4-4.7-91c-16-12.8-127.2,14.9-128.5,0.5C8.5,51.9,120.3-1.3,178,16.5v159.9L144.8,176z"
	/>
<path class="st3" d="M143.9,176c0,0,5.9-82.4-4.7-91C123.3,72.2,12.8,99.9,11.5,85.5c-3-33.6,108-86.7,165.4-68.9v159.9L143.9,176z"
	/>
</svg>
