<svg id="Layer_1" data-name="Layer 1" xmlns="http://www.w3.org/2000/svg" viewBox="0 0 576 576"><defs><style>.cls-1{fill:#50a95a;}.cls-2{fill:#808aff;}.cls-3{fill:#91b5a2;}.cls-4{fill:#00b23e;}.cls-5{fill:#ff9400;}</style></defs><title>tree</title><rect id="Grass" class="cls-1" x="-6.8" y="277.8" width="582.8" height="298.2"/><rect class="cls-2" x="-6.8" y="-7.5" width="582.8" height="285.3"/><polygon class="cls-3" points="452.19 -3.8 468 27.67 480.67 46.33 482.33 65.33 480.67 93.26 467.26 133.67 431.44 182.67 414.67 214 391 276 385 305 379 347.33 377 386.67 377 433.33 377 446.33 387.33 455.67 392.67 458 384.67 469 368.33 471.33 356 466 323 443 301.67 421.67 299 405.67 305.67 384.67 309.33 369.33 306.33 361.33 296.85 360.67 288 363 286.33 370.67 286.33 391.67 283 408.33 274.6 416.33 259.67 419 255 421 257.25 429.33 262.67 433.67 274.6 434.33 291.67 435.33 304.33 441 313.33 463 314.67 480.05 313.67 495.14 306.33 502.85 293.67 510.57 263 514 250 514 253.33 520.67 261 526.67 277.33 529 293 529 306.67 527 315.67 529 324.67 535.67 328.67 542 331.67 548 337.33 550.67 343.67 546 343 537 337.33 514 330.33 490.67 330.67 480.05 335 478 347.33 480.05 368.33 487.78 383.67 490.67 395.67 487.78 408.33 474.33 421.67 454.33 428.33 456.33 433.67 457.67 436.33 473.67 430.33 500.33 415.33 531.33 408 550.67 405.67 564.33 409.67 572.67 419.67 572.67 426.33 565 428.67 549.33 431.67 541.33 437.67 540 448 544.67 455 551.33 458.67 560.67 467.33 567.67 476 567.33 478.67 562 477.67 553.67 469.33 543.67 451.67 523 454 510.57 465.33 513 501 521.67 524 524.67 537.33 523.33 546 517.67 547.67 510.57 541.67 507.33 529 505.69 522.67 504.33 523.67 492.33 524 480.05 523.33 470.67 516.67 466.33 511.67 468.33 508 475.67 506.33 487.78 506.33 496.73 503.33 500 497 502.85 482.67 499 466.33 491.67 454.67 480.05 452.33 464.67 457.67 453.67 459 442.67 452.33 399.67 453 358 457.33 317.67 461 274.33 464.67 252.33 474.67 220.33 487.33 193 505.33 165.33 516.67 149.67 539 127.33 555 115.33 571 106.67 587 102.67 581 51 571.67 55.67 561.33 65.33 546 76 542 63.46 545 29.04 545 10 545 -7.5 452.19 -3.8"/><polygon class="cls-4" points="474.33 -3 474.33 8.67 477.67 18 487 33.33 504.67 49.33 517 61 515.67 46.33 512.33 14.78 510 7 505.62 -5.93 474.33 -3"/><polygon class="cls-4" points="405 -4 420.33 10.33 431.44 24.33 441.33 38.67 436.67 40.67 414.67 38 386.43 27.54 376.33 14.78 365.33 -4 405 -4"/><polygon class="cls-4" points="338.67 -4 335.33 2.67 330 7.33 334.33 10.67 347.67 16.67 355.67 22.33 370.33 27.54 382 27.54 388.67 24 372 0 367.33 -12.33 338.67 -4"/><polygon class="cls-4" points="477.33 71 474.33 70.51 465 69 443 63.46 418.5 61 398.59 66.71 388.67 77 381 87.67 393.33 89.67 418.5 95.67 431.44 95.67 454 85 469.67 75 477.33 71"/><polygon class="cls-4" points="579.67 9 572 16.33 566.33 27.54 562.33 34.33 559 40.67 566 38 581 33 579.67 9"/><polygon class="cls-4" points="528 -5.93 523.33 5 519.67 11.67 529.33 9 550.33 5 559 0 567 -7.5 528 -5.93"/><path d="M576,279.87c-23.62,1.9-47.29.38-70.93.79-11.51.2-23,.15-34.56,0-4.74-.07-6.65,1.66-7.17,6.67-4,37.89-8.87,75.71-7.48,114a206,206,0,0,0,5.34,39.22c.6,2.56,1,4.86,3.36,6.63,3,2.25,3,4.35-.69,6.56-8,4.81-10.41,12.27-7.45,21.55,4.38,13.72,30.1,27.32,43.8,23.36,3.75-1.08,4-3.69,3.93-6.7-.1-6.49.12-12.9,2-19.2,1.7-5.78,4.59-10.67,11.08-9.86s10.08,5.14,9.69,12.22c-.38,6.76,1,13.66-1.18,20.27-2,6.24,1.31,8.32,6.46,9,2.2.3,4.54-.23,6.7.22,4.2.88,10.92-3,11.91,4.21.92,6.65-1.9,13-8.48,16-10.06,4.67-20.8,3.53-31.09,1.61-16.27-3-32.44-6.83-48.43-11.15-8.94-2.41-7.8,2.93-6.47,7.63,1.81,6.43,7.28,10.48,11.79,15,6.41,6.47,12.24,13.31,14,22.66,1.7,8.89-2.22,13-11.06,11.39-8.31-1.49-13.1-7.34-17-14.43-3.07-5.63-6.19-11-13.17-13.24s-9.67-.07-10.07,6.77c-.3,5.11.63,10.27-1.66,15.28-3.48,7.6-9.56,10.41-17.14,9.45-8.35-1.06-8-7.88-7.77-14.19.62-16,7.55-30.11,14.81-43.58,8.69-16.11,11.81-33.25,13.78-50.94.31-2.76,1.13-6.62-2.66-7.3-4.14-.75-9.05-2.14-11.74,3.41a71.25,71.25,0,0,1-10.59,16.13c-13,14.82-24.22,17.81-42.81,11.23-7.52-2.67-14.83-6-22.41-8.44-8.73-2.82-11.4-.26-9,8.87,3.42,13.09,7.22,26.09,11.27,39a37.24,37.24,0,0,1,1.22,15.34c-.55,5.11-4.31,7.9-8.91,9-5.28,1.2-7.32-2.88-9-6.86-5.81-13.83-16.26-18.92-31-16.9-13.21,1.81-26.63,2.28-40.86-2.78,3.59,8.56,6.75,15.81,9.68,23.15,2.34,5.86,4,13.16-.32,17.39-4.87,4.76-12.34,2.05-18.07-.77-14.85-7.31-18.08-21.58-19.9-36.34-1.77-14.37,2.68-27.31,8.81-40.06,10.36-21.58,10.14-22.19-10.89-31.94s-37.34-24.54-49.61-44.28c-7.49-12-15.57-23.71-23.21-35.66-2.69-4.2-5.63-5.83-10.26-3.06-4.9,2.93-9.59,1.42-13.12-2.24-7.32-7.57-8.82-1.46-9.43,4.19-1.18,11,.69,21.83,2.3,32.73,2.11,14.2,9.43,24.19,20.91,32.05,6.8,4.65,14.14,9.08,17.42,17.52,3.35,8.62,1,11.91-8.13,10.93-17.24-1.85-17.47-1.85-17.27,15.46.17,14.91-4.42,27.21-16.81,36.05a19.18,19.18,0,0,0-8.28,15.6c-.31,7.07-6.93,10.68-16.21,9.28-8.15-1.23-9.76-6.86-7.88-13.56,2.39-8.47,8-15.36,12.48-22.8,11.16-18.49,16.43-38.34,12.09-60.09a17.73,17.73,0,0,0-1.38-4.58c-2.36-4.62-4.92-10.34-10.44-10.2-5.19.13-5.52,6.45-6.94,10.52-3.41,9.8-6.06,20-16.09,25.42-7.79,4.21-11.64,1.9-11.25-7s4.21-16.85,6.59-25.18c1.54-5.38.78-7.22-4.92-6.52-6.4.77-12.76-.15-19-1.65-5.76-1.4-9.87-4.36-9.66-11.26.2-6.48,3.44-10.08,9.49-11.55,11.27-2.75,22.1,1.06,33.07,2.33,12.86,1.49,19.8-3.93,20.92-17,1-11.91-1.72-24,1.71-35.76.44-1.54,0-3.78,1-4.65,11.14-10.23,9.28-23.8,10-36.93.48-9.46,4.7-18,8.48-26.57,4.38-9.91,4.25-10-6.12-10q-53.28,0-106.56,0c-3.16,0-6.33-.52-9.49-.79V276l119.92-.44c10.28,0,15-6.69,12.45-16.78-1.06-4.1-3.86-3.75-6.66-3.68a410.63,410.63,0,0,1-50.7-2c-5.08-.5-10.19-.8-15.2-1.67-13.3-2.32-19.7-8-21.5-18.59a27.78,27.78,0,0,1,12.9-28.16c4.36-2.58,9.14-5.24,14-6,22.7-3.44,39.93-16.17,55.68-31.88a144.39,144.39,0,0,1,15.25-13.27c17.25-12.93,30.65-11.79,45.83,3.86,5.81,6,11.12,12.5,16.7,18.74,7.14,8,16,12.33,26.58,14,18.75,2.91,35.19,11.24,49.22,24.14a47.24,47.24,0,0,1,8.36,10.53c7.56,12.63,3.64,23.4-10.31,28.1-9.45,3.19-19.36,4-29.3,4-19.51.05-39-.08-58.53.11-2.87,0-9-1.73-7,4.13,1.68,4.89-4.08,14.44,7.4,14.43q99.33-.07,198.65.09c5.82,0,6.48-3.5,7.73-7.64,9.65-31.93,21.62-62.83,40.71-90.38,7.89-11.38,16.19-22.48,24.66-33.43,13.87-17.92,19.72-38.79,22.73-60.83,1-7.11-1.09-8.84-7.39-5.11s-13,7-19.18,10.85c-14.45,9-29.81,11.07-45.94,6.31-10-2.94-19.62-7.42-30.75-3.54,5.57-16.94,25-30.25,43.8-32.29,15.16-1.64,28.93,3.76,43.23,6.61,2.5.49,5.08,1.4,7.52,1.15,3.48-.36,9.63,2.86,9.13-4.46-.36-5.28,1.56-12.64-9.4-11-11.57,1.71-21.59-6.7-32.86-9-12.77-2.64-26.42-1.46-38.34-7.32a58.6,58.6,0,0,0-26.45-6c-9.5,0-17.61-5.06-25.65-9.79-7.13-4.19-14.1-9-23.73-7C324.68,5.34,331,4,334.08,0h7.68c-1.73,3.32-6.55,3.83-7.69,7.91,15.91,6,28.75,18.8,47,18L362.88,0h5.76c4.09,5.35,8.24,10.66,12.26,16.07C395.07,35.13,416.32,35,437.8,37.73,428.1,23.8,419.33,10.47,407,0h7.68c3.39,3.77,6.48,7.89,10.25,11.22,6.64,5.85,12.84,1.39,19.21-1.37,5.19-2.24,5.2-5.55,3.18-9.85h23c-9.77,13.54-9.48,14.56,6.81,37.38,3.63,5.09,6.87,2.24,11.12.7-10.16-11-16.75-23-16-38.08h3.84c.55,25.8,19.67,38.08,37.66,53.51-2.4-19.15-1.46-37-8.86-53.51h3.84L515,13l9.2-13H528c.46,2.93-3.18,4.87-1.64,8.78C536.4,5.57,547,4.41,556.8,0h7.68c-2.73,4.52-7.72,4.8-11.91,6.65-2.12.93-5,1.24-4.92,4.87.13,12.2.05,24.41.05,36.45,5.83-3.3,8.4-10.17,12.69-15.58,6.09-7.66,7.86-18.08,15.61-24.62v7.78c-4,6.41-8.53,12.58-11,20.93L576,33v3.89c-4.29,2-8.62,3.82-12.87,5.86-11,5.25-16.37,16.13-14.19,28.94,4.56-3.73,8.92-7.39,13.39-10.9S571.44,54,576,50.53v5.83c-9.71,7.91-19.62,15.59-29.08,23.81-7.69,6.69-7.45,7-15,7.14,6.8-19.13,9.22-39,10.19-59,.28-5.92,3.7-14.3-.8-17.27-4.93-3.25-12,2.09-17.77,4.59-3.3,1.43-7.85,2.12-7.6,7.38.61,13.23.77,26.53,7.15,38.71,1.39,2.66,4,5.18,2.29,9.4-8.14-3.72-12.11-12.17-19.05-16.59-3.22.81-2.08,7.3-6.77,5.23-3.12-1.37-2.39-5-2.55-7.82,0-.64,0-1.29,0-1.94.17-5.1-.72-7.45-6.41-4-7,4.21-8.74,12.66-2.86,19.57,1.07,1.26,4.41,1.9,1.95,3.7-5.39,4-4.61,9.92-5.1,15A129.71,129.71,0,0,1,455,155.47c-42.06,51.42-63,111.52-71.21,177-4.35,34.49-2.46,69.15-4.55,103.68a28.92,28.92,0,0,0,1.29,8.59c1.33,5.21,5.76,6.66,10.21,7.53,4.92,1,5.33-3.48,6.81-6.51,3.25-6.65,6.4-13.36,9.81-19.94.79-1.53,2.11-3.84,4.4-2.54s1,3.19.12,5c-4.2,8.7-8.21,17.49-12.46,26.17-9.91,20.24-23.19,25.23-43.07,14.63a211.24,211.24,0,0,1-49.21-36.75c-10.51-10.44-13-23.3-8.09-37.53,2.5-7.31,4.76-14.72,7-22.13,1.57-5.25.33-9.3-5.82-9.4-4.83-.07-10.53-1.21-10.46,7.25a245.86,245.86,0,0,1-1.62,27.1c-1.61,15.6-10.36,23.65-25.72,24.39-1.4.07-3.2-.62-4.14,1.52,1.32,5.61,5.21,7.66,10.55,7.58,5.12-.08,10.23-.45,15.34-.42,11.78.06,23.06,2.94,28.59,14.17a66,66,0,0,1,4.86,45.36c-4.05,16.53-19.19,26.17-40.07,26.92-6.75.25-13.51,0-21.64,0,3.57,5.14,7.07,6.23,10.79,7.35,11.5,3.46,22.85,1.06,34.21-.51,13-1.8,27,6.23,32.23,18.41.83,1.95.44,6.14,4.42,4.85,3-1,4.26-4,3.71-7.09-.61-3.48-1.91-6.82-2.64-10.29-3-14.19-9.95-27.31-11-42-.88-12.35.34-13.5,12.39-12.42,11.12,1,20.3,7.55,30.7,10.6,11.07,3.24,20.69,1.63,29-7a72.87,72.87,0,0,0,16.64-26.89c.83-2.37,2.62-6.73,4.44-4.18,7.73,10.9,11.42,3.82,16-3.54,1.91,23,2.59,45-7.32,65.77-7.51,15.7-15.6,31.14-19.4,48.34-.95,4.32-2.76,10,3.64,11,5.46.89,10-1.88,10.61-8.48.35-3.86.76-7.71,1.07-11.58.84-10.09,4.34-12.87,14.41-11.56,7.12.93,12.59,4.31,16.27,10.6,2.12,3.62,4.13,7.3,6.46,10.77,2.84,4.25,7.8,8.6,11.77,6,4.75-3.15,1-8.86-1.76-12.66s-6.36-7.25-9.71-10.72c-4.27-4.41-8.55-8.86-11.07-14.54-2.38-5.35-4.92-11.64-1.42-16.7,3.72-5.38,10.19-2.14,15.17-1.09,14,3,27.84,7,41.88,10,10,2.08,20.13,4.31,30.25.64,3.43-1.24,7-3.63,6.55-7.38-.37-3.26-4.51-2.49-7.2-2.79s-5.18-.86-7.64-.47c-9.3,1.5-10.92-3.36-9.72-11.16.93-6.06,1.74-12.16,2.2-18.27.34-4.49.71-10.47-5-10.87-5.2-.36-5.13,5.53-5.78,9.56-.35,2.23-.34,4.52-.59,6.77-2.35,20.73-2.57,21.22-23.46,17.81-26.71-4.36-47-23.45-33.56-55.57,1.76-4.22,1.34-8.07.63-12.27A284.68,284.68,0,0,1,450,373.88c1.31-26.51,4.92-52.82,6.44-79.26,3.5-61.24,27.53-113,68.55-157.12C539.16,122.22,555.41,109.08,576,103v3.88c-24.69,12.38-45.89,29.16-62.48,51.53-23,31-41,64.44-48,103.17-2.51,14-2.68,13.9,11.81,14q49.34.18,98.67.44Zm-291.43,156c-2.83.37-5.76.4-8.48,1.19-5.27,1.55-10.25.14-15-1.44-7.72-2.55-9.71-9.67-9-16.44s7.13-3.43,11-3.67c10.51-.64,15.43-4.52,18.36-14.94,2.87-10.17,1.73-20.55,2-30.86.26-10,3.6-12.85,15.48-12.88,9.12,0,12.73,3.58,13,12.8.26,10.37-4.24,19.46-7.73,28.75-3.57,9.52-2.06,18.52,4.16,25.47a173,173,0,0,0,56.65,42.28c6.86,3.18,14.48,2.82,20.9-2.18,2.7-2.1,5.11-4.8-.54-6.74-9.44-3.24-11.94-10.77-11.7-20,.57-22.61.26-45.21,1.53-67.85,1.51-26.81,3.89-53.34,9.92-79.48,1.59-6.88.6-9.48-7.43-9.44q-94.51.53-189,0c-6.9,0-10.23,2.31-10.88,8.83-1.79,17.85-8,34.45-13.89,51.15-5.23,14.9-5.62,15.32,7.94,24.08,20.68,13.36,36.46,30.21,42.61,55,1,4,3,7.81,4.87,11.58,8,16.64,12.88,18.6,29.73,12.13,16-6.13,26.78,2.75,23.72,19.91-.79,4.44-1,8.34,1.55,12,1.62,2.35,3.6,5.09,6.75,4.87,3.55-.25,3.77-3.65,4.69-6.43,3.38-10.25.64-19.82-3.22-29.12C280.88,440.68,279.46,437.86,284.57,435.88ZM471,72.54c-10.19-1.59-19.78-4.81-29.54-7.23-19.59-4.84-37.25-.24-52,14.19-2.27,2.23-5.66,6.09.11,6.61,9.71.88,18.3,5.36,27.85,6.72C439.09,95.92,453.8,81.59,471,72.54Zm1.91-31.48c-3.81-9-9.47-16.74-15-24.53-1-1.39-2.34-2.35-4.07-1.33-6.86,4-14.71,2.62-22.47,3.34C444.88,43,454.23,46.55,472.94,41.06Zm-206.3,469.3a28,28,0,0,1-9.22-12.06c-1.87-4.79-4.65-3.43-7.13-.57s-2.87,6.49-2,10.07c1,4.34,4.69,2.2,7.21,2.48C258.63,510.62,261.82,510.36,266.64,510.36Zm45.18-22.58c-3.76,7-9.19,12.6-15,17.91C304.91,502.26,310,496.39,311.82,487.78Z"/><path class="cls-5" d="M157.33,149c11.34,0,22,11.33,28,19.33s11,14.67,16.34,17.34,8,7.33,16.33,8,20,3.33,24.67,5.66,19,10,25.66,15.34,13.67,13.33,13,19,1.34,8-5,11.66-22.66,7.34-30,7-28,1-35.33,0-31.33-3.68-34-1.35a12,12,0,0,0-3.67,9.33c.34,2.67,0,13.6.34,17.47S170,310.67,167,317.33,154.79,344,155.33,348c1,7.33,1.9,10.33,5.12,14s14.22,9,20.22,14.33,15.66,14.34,20,23,9,21,11,25.67,8,19.67,13.33,22.67,10.67,6,17,3.33,16.33-7.67,20.33-4.67,7.67,5.34,6.67,12-3.33,12-.33,17.34S274.42,488,281.38,485s11.95-8.33,10.62-15.33-2.33-14-4-20.67-6.29-11,1.67-11,14.35,2.23,17,8.72,8,20.61,5.15,26.95-4.15,16.13-12.15,23.06-10.34,14.07-18,13.84-14.34-3.53-17.34-7.72S259,489.67,254.67,490s-8.67.8-9.67,6.73a28.09,28.09,0,0,0,2.87,20.94C254,528,258,543,259,546s10.33,14.67,3.33,18.67-13,.33-17-3.34S231.67,546,231.67,535.67s-.09-19.11,2.3-26.67c5.36-17,16.9-28.67,13.9-39s-7.54-6.67-12.54-10-26-11.67-29.66-17.33c0,0-11.67-7-21.34-23S158,378.33,155.31,375s-8.31-5.67-10.64-4.67-5.34,5.34-9.34,3.67-9.33-10.67-13-8.33-7.33,8-6,18.33-.66,9,1.34,20.67,3.33,19.66,8,26.33,12.66,12.67,17.66,16.67,10.34,4.66,11.67,9.66,6.33,8.67,3,9.67-14.33-1.33-17.33-.33-7.34-1.67-8,4,0,16-1.34,21.66-.33,13.14-5.66,18.24-10,5.76-14,13.1-3.67,16.66-7.67,18-11.33,5.33-13,.66,1.67-15.33,5.33-20S111,502.72,113,489.67s7-32.34.33-45-10.66-15-15.33-12.34-9.67,4-11.33,14-5,18.34-10,21-8,4.67-8.67-1.66,7-20,8-26.67-1-9-4-9-21.67,1.33-25.33-1.67-8-5.33-5-10.33c1.42-2.38,12.1-7.37,23.66-5,13,2.67,27.63,3.85,32,0,0,0,7.67-6.67,8.67-17s-2-18-1-26.33,2.67-12.67,5.33-17.34c0,0,7-8.33,7.34-17.33s-2.34-19,1.33-25.67,7-18.16,10.33-26.75,8.34-7.91,7.67-16.91.33-13.34-5.67-14S94,250.33,87.67,249s-32.34.67-37.67-4.67S40,233,41.66,226c0,0,0-9.67,7.34-14.67a71.23,71.23,0,0,1,23.33-10c18.34-3.66,23.88-9.25,34.34-16.33,0,0,24.66-22.67,30-27.33S150,149,157.33,149Z"/></svg>